<?xml version="1.0" encoding="utf-8"?>
<!-- Generator: Adobe Illustrator 21.0.2, SVG Export Plug-In . SVG Version: 6.00 Build 0)  -->
<svg version="1.1" id="Capa_1" xmlns="http://www.w3.org/2000/svg" xmlns:xlink="http://www.w3.org/1999/xlink" x="0px" y="0px"
	 viewBox="0 0 595.3 841.9" style="enable-background:new 0 0 595.3 841.9;" xml:space="preserve">
<style type="text/css">
	.st0{fill:#006FB5;}
	.st1{fill:#FFFFFF;}
	.st2{fill:#009839;}
	.st3{fill:#009633;}
	.st4{fill:#E23828;}
	.st5{fill:#E6E224;}
	.st6{fill:#304C9A;}
	.st7{fill:none;stroke:#010001;stroke-miterlimit:10;}
	.st8{fill:#030202;}
	.st9{fill:#010001;}
	.st10{font-family:'GangofThree';}
	.st11{font-size:24px;}
</style>
<rect x="-6" y="-7" class="st0" width="623" height="582"/>
<circle class="st1" cx="78.4" cy="96.4" r="19.4"/>
<circle class="st1" cx="109.5" cy="96.4" r="19.5"/>
<circle class="st1" cx="140.8" cy="96.4" r="19.4"/>
<path class="st2" d="M87.6,88.2c-9.3-8.7-19,0-19,0c-5.2,7.2-4.1,10.6-4.1,10.6c0.2,12.5,13.9,13.7,13.9,13.7
	c13.9-0.6,9.2-13.7,9.2-13.7c-5.3,2.3-9.2,0-9.2,0v2.9c1.3,1.6,7.2,0.2,7.2,0.2c-0.3,8.6-7.2,6.9-7.2,6.9c-9.4-0.1-11-10-11-10
	c-0.7-9.9,11-10.8,11-10.8c5.4,1,9.2,4.5,9.2,4.5V88.2z"/>
<path class="st3" d="M78.4,85.7c0.2,0,0.2-0.1,0.2-0.1l-0.1-2.7l0.2-0.3c1.8,0.5,1.7-2,1.7-2c-0.3,0.6-0.9,0.7-0.9,0.7
	c-1.3,0.6-0.9,1.2-0.9,1.2l-0.1,0.2v-1.4l0.1-0.2c0.6,0.2,0.9-0.2,0.9-0.2c0.4-0.2,0.4-1.3,0.4-1.3c-0.1,0.4-1,0.7-1,0.7
	c-0.3,0.2-0.3,0.6-0.3,0.6l-0.2,0v0L78.1,81c0.1-0.5-0.1-0.6-0.1-0.6c-0.4-0.4-1-0.3-1-0.3c0.4,0.2,0.4,0.6,0.4,0.6
	C77.5,81.1,78,81,78,81l0.3,0.1l0,1.4l-0.3-0.1c0.1-0.4-0.1-0.7-0.1-0.7c-0.5-0.7-1.5-0.6-1.5-0.6c0.1-0.2,0.7,1,0.7,1
	c0.2,0.4,0.7,0.3,0.7,0.3l0.4,0.2l-0.1,3C78.3,85.7,78.4,85.7,78.4,85.7z"/>
<path class="st3" d="M68.5,89.8c0.1-0.1,0.1-0.2,0.1-0.2l-1.5-2.3l0-0.3c1.8-0.5,0.4-2.6,0.4-2.6c0.1,0.7-0.4,1-0.4,1
	C66.4,86.6,67,87,67,87l0,0.3l-0.7-1.2l0-0.2c0.6-0.2,0.6-0.6,0.6-0.6c0.2-0.4-0.3-1.3-0.3-1.3c0.1,0.4-0.5,1.1-0.5,1.1
	c-0.1,0.3,0,0.7,0,0.7L66,85.9l0,0L65.8,86c-0.2-0.5-0.4-0.4-0.4-0.4c-0.5-0.1-1,0.2-1,0.2c0.4,0,0.7,0.3,0.7,0.3
	c0.3,0.3,0.7,0,0.7,0l0.3-0.1l0.7,1.2l-0.3,0.1c-0.1-0.4-0.4-0.6-0.4-0.6c-0.8-0.3-1.5,0.3-1.5,0.3c0-0.3,1.1,0.5,1.1,0.5
	c0.4,0.2,0.8-0.1,0.8-0.1l0.4-0.1l1.5,2.6C68.4,89.9,68.5,89.8,68.5,89.8z"/>
<path class="st4" d="M120.4,106.7c-4.3,2.9-13.7,0-13.7,0c-2.9-3.1,0-5.7,0-5.7h13.7c1.2-0.6,0-3.9,0-3.9
	c-7.4,0.6-15.8-0.1-15.8-0.1c-1.8-2.1,0.2-7.5,0.2-7.5c2.8,1.2,17.7-0.6,16.2-0.1c-1.5,0.5,0-5,0-5c-9.2,1.1-21.3,0-21.3,0
	c-6.1,12.6,0,25.6,0,25.6c12.6,2.2,21,0.6,21,0.6C122.4,109.7,120.4,106.7,120.4,106.7z"/>
<path class="st5" d="M105,85.1h9l1.5-8l-1.8,3.5c0,0-0.5,1.2-0.9,0l-0.3-1.6l-0.6,1.6c0,0-0.7,1-1.3,0l-0.4-3.1l-1.1,3.1
	c0,0-0.7,1-1.2,0l-0.4-1.8c-0.1,1.7-0.8,1.8-0.8,1.8s-0.3,0.1-1.7-3.1V85.1z"/>
<path class="st6" d="M155.9,96.4c0,8.4-6.3,15.2-14.1,15.2c-7,0-12.7-5.4-13.9-12.6c-0.1-0.9-0.2-1.7-0.2-2.6
	c0-8.4,6.3-15.2,14.1-15.2C149.6,81.2,155.9,88,155.9,96.4z"/>
<path class="st2" d="M135.2,106.9c0.4,0.1,0.6,0,0.8,0.2c0.2,0.2,0.2,0.6,0.1,0.8c-0.1,0.1-0.4,0.1-0.6-0.1
	c-0.1-0.1-0.4-0.4-0.1-2.5c0.1-1.1,0.2-1.7,0.5-2.1c0.1-0.2,0.5-0.6,1.1-1.2c0.7-0.8,0.9-0.9,1.1-1.3c0.1-0.2,0.3-0.6,0.2-1.3
	c0-0.1,0-0.1-0.4-1c-0.3-0.8-0.4-0.9-0.6-1c-0.2-0.1-0.3,0.2-0.8,0.2c-0.5,0-0.5-0.2-1.1-0.3c-0.5,0-0.6,0.2-0.9,0.1
	c-0.3-0.1-0.3-0.4-0.5-0.9c0-0.1-0.2-0.6-0.2-1.3c0-0.5,0-0.8,0.1-1.1c0.2-0.5,0.4-0.8,0.6-1c0.3-0.3,0.5-0.5,0.8-0.5
	c0.3,0,0.5,0.2,0.7,0.3c0.5,0.4,0.5,0.8,0.8,0.8c0.3,0,0.6-0.3,0.6-0.5c0-0.3-0.5-0.3-0.7-0.8c-0.2-0.3,0-0.7,0-0.8
	c0.1-0.3,0.3-0.5,0.5-0.7c0.3-0.3,0.5-0.3,1.1-0.6c0.5-0.3,0.8-0.5,1-0.8c0.2-0.3,0.2-0.6,0.4-1.3c0.1-0.5,0.1-0.7,0.1-0.8
	c-0.1-0.4-0.3-0.5-0.3-0.8c0-0.4,0.1-0.7,0.2-0.8c0.1-0.1,0.2-0.3,1-0.8c0.5-0.3,0.6-0.3,0.8-0.5c0.2-0.3,0.1-0.8,0-1.1
	c-0.3-0.7-1.2-0.9-1.9-0.8c-0.3,0.1-0.2,0.1-0.9,0.5c-0.7,0.4-1.3,0.7-1.8,0.9c-0.6,0.3-0.7,0.3-1.1,0.5c-0.3,0.2-0.5,0.3-0.9,0.6
	c-0.7,0.5-0.6,0.5-0.9,0.6c-0.6,0.4-0.8,0.3-1.6,0.6c-0.5,0.2-0.7,0.3-1,0.6c-0.6,0.5-0.8,1.2-1,1.7c-0.1,0.2-0.1,0.3-0.3,1.6
	c-0.2,1.4-0.2,1.6-0.3,1.8c0,0.6,0,1.5,0.5,1.8c0.2,0.1,0.2,0,0.6,0.2c0.4,0.2,0.6,0.4,0.9,0.7c0.2,0.2,0.4,0.4,0.6,0.6
	c0.4,0.5,0.5,1,0.5,1.1c0.1,0.5,0,0.6,0,1.4c0,0.8,0.2,0.8,0.1,1.4c0,0.4-0.1,0.7-0.3,1.1c-0.2,0.7-0.4,0.8-0.4,1.1
	c0,0.6,0.3,1,0.4,1.1c0.2,0.3,0.4,0.3,0.6,0.6c0.1,0.3,0.1,0.4,0.3,0.8c0.1,0.2,0.1,0.3,0.3,0.7c0.4,0.9,0.3,0.8,0.5,1.1
	C134.5,106.4,134.8,106.7,135.2,106.9z"/>
<polygon class="st2" points="145.2,106.3 144.4,106.3 144.1,105.6 143.7,103.9 143.7,102.6 143.7,101.3 143.7,100 143.1,99.7 
	142.3,99.3 141.8,98.6 141.4,97.3 141.1,96.7 141.4,96 141.8,95.4 143.1,94.9 144.5,94.9 145.7,94.6 147.3,94.6 148.5,94.6 
	149.6,95.4 149.9,96.4 149.9,97.7 149.9,99.3 149.5,99.7 149.5,100.9 148.7,101.6 148.1,102.8 148.1,103.4 147.7,103.9 147.1,104.4 
	146.8,105.1 146.1,105.7 "/>
<polygon class="st2" points="148.9,105.1 149.4,105.1 149.9,103.5 149.9,103.1 148.9,104.1 "/>
<path class="st2" d="M141.7,94.6l-0.3-0.6l0.1-0.5v-0.5h1.2v-1l-0.7-0.3l-0.2-0.1l0.9-0.9h0.5l0.6-0.3l0.4-0.5l0.4-0.4h0.6v-0.7
	l0.3,0.6h1l0.6,0l0.7-0.3l0.3,0.1l0.4,0.2v-1h0.4l0.2,0.4l0.4-0.4h0.6l0.3-0.3l-0.3-0.2h-0.7l-0.6-0.3l-0.1-1.2l0.7-1.2l-0.6-0.3
	h-0.7l-0.7,0.7l-0.4,0.4l-0.4,0.4V87v0.8v0.6l-0.6-0.3l-0.5-0.3l-0.3-0.5l-0.3-0.2l-0.7,0.8l-0.4-0.2l-0.3-0.4l0.5-0.8l0.5-0.5
	l0.5-0.5l0.3-0.5l0.4-0.8l0.5-0.5l1.1,0.3l1,0.2l0.9,0.5l1,0.5v0.5l1.8,0c1.1,1.3,2.7,3.9,2.7,3.9c0.6,1.5,1.4,4.7,1.4,4.7l-1.4,0.7
	v0.9l-0.2,1.4l-1.2-0.8l-0.4-1.2l-1.5-0.4l-0.4-0.2l0.3,0.9l0.7,0.4v0.6l-0.4,0.4l-0.3-0.6l-0.5-0.5l-0.4-0.8l-0.2-0.8l-0.8-0.4
	l-0.8,0l-0.9,0.4l-0.4-0.5v-0.7l-0.8,0.2l0.5,1l-0.3,0.3l-0.4-0.2l0.2-0.3l-0.2-0.4l-1.5-0.1l-0.9,0.5v0.3l-0.5,0.2L141.7,94.6z"/>
<path class="st2" d="M135.5,110l0.8-0.7l0.7-0.7v0.7l0.9,0.7h1.9h0.7l0.6-0.7l0.8,0.7h1.2l0.7-0.7l1.8,0.3l0.8,0.4l0.6,0.3
	C141.8,113.3,135.5,110,135.5,110z"/>
<path class="st7" d="M130.1,104.2c3.4,3.3,12,0,19.1-7.4"/>
<path class="st8" d="M154.3,91.3c-0.4-0.1-1.8,1.4-1.8,1.4l-0.9,0l0.2-0.2l-0.1-0.1l-0.3,0.3l-0.8,0l0.1-0.1l-0.2-0.2l-0.3,0.3
	l-1.1,0l-0.3,0.2l2.1,0.5l0.9,0.4l-1,1.2l-0.4,0.7l-1.2-0.1l-0.2,0.2l1,0.6l0.5,0.9l0.2-0.2l-0.1-1.2l0.6-0.5l1.1-1.2l0.5,0.7
	l0.7,2.2l0.2-0.3l-0.2-1.2l0.3-0.3l-0.2-0.2l-0.2,0.2l-0.1-0.9l0.3-0.3l-0.2-0.2l-0.2,0.2l-0.1-0.9
	C154.4,91.7,154.3,91.3,154.3,91.3z"/>
<text transform="matrix(1 0 0 1 81.8549 126)" class="st9 st10 st11">PORT</text>
</svg>
